<svg aria-hidden="true" style="position:absolute;width:0;height:0" xmlns="http://www.w3.org/2000/svg" overflow="hidden"><defs><symbol id="icon-back" viewBox="0 0 32 32"><path d="M10.438 5.089a1.13 1.13 0 011.613 0 1.137 1.137 0 010 1.596l-8.176 8.176h26.981c.629 0 1.145.5 1.145 1.129s-.516 1.145-1.145 1.145H3.875l8.176 8.161c.436.451.436 1.178 0 1.613a1.13 1.13 0 01-1.613 0L.326 16.797a1.137 1.137 0 010-1.596L10.438 5.089z"/></symbol><symbol id="icon-next" viewBox="0 0 32 32"><path d="M21.548 5.088a1.13 1.13 0 00-1.613 0 1.137 1.137 0 000 1.596l8.177 8.177H1.128c-.629.001-1.129.501-1.129 1.13s.5 1.145 1.129 1.145h26.984l-8.177 8.162c-.436.451-.436 1.178 0 1.613a1.13 1.13 0 001.613 0l10.113-10.113a1.11 1.11 0 000-1.596L21.548 5.088z"/></symbol></defs></svg>