<svg aria-hidden="true" style="position: absolute; width: 0; height: 0; overflow: hidden;" version="1.1" xmlns="http://www.w3.org/2000/svg" xmlns:xlink="http://www.w3.org/1999/xlink">
<defs>
<symbol id="icon-back" viewBox="0 0 32 32">
<path d="M10.438 5.089c0.451-0.451 1.161-0.451 1.613 0 0.436 0.436 0.436 1.161 0 1.596l-8.176 8.176h26.981c0.629 0 1.145 0.5 1.145 1.129s-0.516 1.145-1.145 1.145h-26.981l8.176 8.161c0.436 0.451 0.436 1.178 0 1.613-0.451 0.451-1.161 0.451-1.613 0l-10.112-10.112c-0.436-0.436-0.436-1.161 0-1.596l10.112-10.112z"></path>
</symbol>
<symbol id="icon-next" viewBox="0 0 32 32">
<path d="M21.548 5.088c-0.436-0.451-1.162-0.451-1.613 0-0.436 0.436-0.436 1.162 0 1.596l8.177 8.177h-26.984c-0.629 0.001-1.129 0.501-1.129 1.13s0.5 1.145 1.129 1.145h26.984l-8.177 8.162c-0.436 0.451-0.436 1.178 0 1.613 0.451 0.451 1.178 0.451 1.613 0l10.113-10.113c0.451-0.436 0.451-1.162 0-1.596l-10.113-10.114z"></path>
</symbol>
</defs>
</svg>
